<?xml version="1.0" standalone="no"?><!DOCTYPE svg PUBLIC "-//W3C//DTD SVG 1.1//EN" "http://www.w3.org/Graphics/SVG/1.1/DTD/svg11.dtd"><svg t="1772369369882" class="icon" viewBox="0 0 1024 1024" version="1.1" xmlns="http://www.w3.org/2000/svg" p-id="10001" xmlns:xlink="http://www.w3.org/1999/xlink" width="200" height="200"><path d="M146.746 621.254l320 320c24.992 24.994 65.516 24.994 90.51 0l320-320c24.992-24.994 24.992-65.516 0-90.51-24.994-24.994-65.516-24.994-90.51 0L576 741.49 576 128c0-35.346-28.654-64-64-64s-64 28.654-64 64l0 613.49L237.254 530.744C224.758 518.248 208.378 512 192 512s-32.758 6.248-45.254 18.744C121.752 555.738 121.752 596.26 146.746 621.254z" fill="#a51515" p-id="10002"></path></svg>