<?xml version="1.0" standalone="no"?><!DOCTYPE svg PUBLIC "-//W3C//DTD SVG 1.1//EN" "http://www.w3.org/Graphics/SVG/1.1/DTD/svg11.dtd"><svg t="1772369758760" class="icon" viewBox="0 0 1024 1024" version="1.1" xmlns="http://www.w3.org/2000/svg" p-id="28164" xmlns:xlink="http://www.w3.org/1999/xlink" width="200" height="200"><path d="M755.640508 961.082018l-483.307518 0c-57.20998 0-103.564727-46.388517-103.564727-103.564727L168.768263 512.296759c0-52.457746 39.072901-95.338369 89.642646-102.183264l-0.270153-113.037473c0-0.944512 0.506537-1.753947 0.572028-2.697435C259.690042 166.740582 365.482507 63.511499 496.051261 63.511499c131.176598 0 237.507322 104.140849 237.507322 232.618988 0 0.270153-0.066515 0.471744-0.066515 0.674359l-2.731204 0c0 0.101307 0.066515 0.202615 0.066515 0.270153l0.37146 1.550309c0 21.441335-17.801435 38.836517-39.714514 38.836517s-39.71349-17.396205-39.71349-38.836517l-0.337691-1.550309c0-3.979638 1.178849-7.585769 2.292206-11.192923-6.303566-80.102363-73.864288-143.413294-157.269883-143.413294-87.215364 0-157.911496 69.043493-158.449755 154.337087l-0.539282 0c0 0.101307 0.067538 0.202615 0.067538 0.270153l0.270153 111.656009 417.836387 0c57.176211 0 103.566774 46.320978 103.566774 103.56575l0 345.220532C859.207281 914.693502 812.816718 961.082018 755.640508 961.082018zM790.161742 581.341275c0-57.20998-46.388517-103.566774-103.564727-103.566774L341.376483 477.774501c-4.584412 0-8.933463 0.741897-13.349029 1.349741-7.281847 8.325619-17.732873 13.888312-29.835516 13.888312-2.663666 0-5.02341-0.976234-7.550976-1.482771-31.387871 17.800411-52.828182 51.108005-52.828182 89.810469l0 207.132524c0 57.176211 46.354747 103.564727 103.56575 103.564727l345.220532 0c57.176211 0 103.564727-46.388517 103.564727-103.564727L790.163789 581.341275z" p-id="28165" fill="#00a859"></path></svg>