<?xml version="1.0" standalone="no"?><!DOCTYPE svg PUBLIC "-//W3C//DTD SVG 1.1//EN" "http://www.w3.org/Graphics/SVG/1.1/DTD/svg11.dtd"><svg t="1772369574567" class="icon" viewBox="0 0 1024 1024" version="1.1" xmlns="http://www.w3.org/2000/svg" p-id="17286" xmlns:xlink="http://www.w3.org/1999/xlink" width="200" height="200"><path d="M637.866667 569.6c49.066667-38.4 81.066667-98.133333 81.066666-164.266667 0-115.2-93.866667-206.933333-206.933333-206.933333s-206.933333 93.866667-206.933333 206.933333c0 68.266667 32 125.866667 81.066666 164.266667-100.266667 36.266667-170.666667 115.2-187.733333 219.733333-2.133333 17.066667 8.533333 34.133333 25.6 36.266667h4.266667c14.933333 0 29.866667-10.666667 32-27.733333 19.2-110.933333 119.466667-187.733333 249.6-187.733334 132.266667 0 232.533333 74.666667 249.6 187.733334 2.133333 17.066667 19.2 29.866667 36.266666 25.6 17.066667-2.133333 29.866667-19.2 25.6-36.266667-12.8-102.4-83.2-181.333333-183.466666-217.6zM369.066667 405.333333a142.933333 142.933333 0 1 1 285.866666 0 142.933333 142.933333 0 0 1-285.866666 0z" p-id="17287" fill="#a51515"></path><path d="M300.8 569.6c0-17.066667-14.933333-32-32-32-64 0-115.2-51.2-115.2-115.2s51.2-115.2 115.2-115.2c17.066667 0 32-14.933333 32-32s-14.933333-32-32-32c-98.133333 0-179.2 81.066667-179.2 179.2 0 55.466667 25.6 104.533333 64 136.533333C72.533333 590.933333 14.933333 657.066667 2.133333 744.533333c-2.133333 17.066667 8.533333 34.133333 25.6 36.266667h4.266667c14.933333 0 29.866667-10.666667 32-27.733333 14.933333-91.733333 98.133333-151.466667 204.8-151.466667 17.066667 0 32-14.933333 32-32zM1024 744.533333c-14.933333-85.333333-70.4-153.6-151.466667-185.6 38.4-32 64-81.066667 64-136.533333 0-98.133333-81.066667-179.2-179.2-179.2-17.066667 0-32 14.933333-32 32s14.933333 32 32 32c64 0 115.2 51.2 115.2 115.2s-51.2 115.2-115.2 115.2c-17.066667 0-32 14.933333-32 32s14.933333 32 32 32c106.666667 0 189.866667 61.866667 204.8 151.466667 2.133333 14.933333 17.066667 27.733333 32 27.733333h4.266667c17.066667-4.266667 27.733333-19.2 25.6-36.266667z" p-id="17288" fill="#a51515"></path></svg>