<svg width="32" height="32" viewBox="0 0 120 120" fill="none" xmlns="http://www.w3.org/2000/svg">
  <defs>
    <radialGradient id="face" cx="38%" cy="28%" r="66%">
      <stop offset="0%" stop-color="#FFF4B8"/>
      <stop offset="40%" stop-color="#FFD84F"/>
      <stop offset="74%" stop-color="#C77A08"/>
      <stop offset="100%" stop-color="#6C3100"/>
    </radialGradient>
    <linearGradient id="rim" x1="20" y1="14" x2="100" y2="106" gradientUnits="userSpaceOnUse">
      <stop offset="0%" stop-color="#FFF1A7"/>
      <stop offset="30%" stop-color="#DFA31B"/>
      <stop offset="58%" stop-color="#7A3A00"/>
      <stop offset="100%" stop-color="#FFD867"/>
    </linearGradient>
  </defs>
  <circle cx="60" cy="63" r="48" fill="#4A2100"/>
  <circle cx="60" cy="58" r="49" fill="url(#rim)"/>
  <circle cx="60" cy="56" r="38" fill="url(#face)"/>
  <g transform="translate(60 56)">
    <path d="M0 -24C10 -14 15 -6 16 0C9 2 3 5 0 9C-3 5 -9 2 -16 0C-15 -6 -10 -14 0 -24Z" fill="#FFD957" stroke="#8B4513" stroke-width="1.4"/>
    <path d="M0 24C10 14 15 6 16 0C9 -2 3 -5 0 -9C-3 -5 -9 -2 -16 0C-15 6 -10 14 0 24Z" fill="#FFD957" stroke="#8B4513" stroke-width="1.4"/>
    <path d="M24 0C14 -10 6 -15 0 -16C-2 -9 -5 -3 -9 0C-5 3 -2 9 0 16C6 15 14 10 24 0Z" fill="#FFD957" stroke="#8B4513" stroke-width="1.4"/>
    <path d="M-24 0C-14 -10 -6 -15 0 -16C2 -9 5 -3 9 0C5 3 2 9 0 16C-6 15 -14 10 -24 0Z" fill="#FFD957" stroke="#8B4513" stroke-width="1.4"/>
    <circle r="11" fill="#5A0000"/>
    <circle r="8.5" fill="#D40000" stroke="#FFD867" stroke-width="2"/>
  </g>
</svg>
