<svg width="120" height="120" viewBox="0 0 120 120" fill="none" xmlns="http://www.w3.org/2000/svg">
  <defs>
    <radialGradient id="logoFace" cx="38%" cy="28%" r="66%">
      <stop offset="0%" stop-color="#FFF4B8"/>
      <stop offset="38%" stop-color="#FFD84F"/>
      <stop offset="72%" stop-color="#C77A08"/>
      <stop offset="100%" stop-color="#6C3100"/>
    </radialGradient>
    <linearGradient id="logoRim" x1="20" y1="14" x2="100" y2="106" gradientUnits="userSpaceOnUse">
      <stop offset="0%" stop-color="#FFF1A7"/>
      <stop offset="24%" stop-color="#DFA31B"/>
      <stop offset="48%" stop-color="#7A3A00"/>
      <stop offset="74%" stop-color="#FFD867"/>
      <stop offset="100%" stop-color="#8C4300"/>
    </linearGradient>
    <filter id="logoShadow" x="7" y="9" width="106" height="106" filterUnits="userSpaceOnUse" color-interpolation-filters="sRGB">
      <feDropShadow dx="0" dy="5" stdDeviation="5" flood-color="#4B0000" flood-opacity="0.35"/>
    </filter>
  </defs>
  <g filter="url(#logoShadow)">
    <circle cx="60" cy="63" r="48" fill="#4A2100"/>
    <circle cx="60" cy="58" r="49" fill="url(#logoRim)"/>
    <circle cx="60" cy="58" r="40" fill="#5B2800" opacity="0.32"/>
    <circle cx="60" cy="56" r="38" fill="url(#logoFace)"/>
    <circle cx="60" cy="56" r="32" fill="none" stroke="#8B4513" stroke-width="2" stroke-dasharray="1 4.6" opacity="0.45"/>
    <g transform="translate(60 56)">
      <path d="M0 -25C10 -15 15 -7 16 0C9 2 3 5 0 9C-3 5 -9 2 -16 0C-15 -7 -10 -15 0 -25Z" fill="#FFD957" stroke="#8B4513" stroke-width="1.4"/>
      <path d="M0 25C10 15 15 7 16 0C9 -2 3 -5 0 -9C-3 -5 -9 -2 -16 0C-15 7 -10 15 0 25Z" fill="#FFD957" stroke="#8B4513" stroke-width="1.4"/>
      <path d="M25 0C15 -10 7 -15 0 -16C-2 -9 -5 -3 -9 0C-5 3 -2 9 0 16C7 15 15 10 25 0Z" fill="#FFD957" stroke="#8B4513" stroke-width="1.4"/>
      <path d="M-25 0C-15 -10 -7 -15 0 -16C2 -9 5 -3 9 0C5 3 2 9 0 16C-7 15 -15 10 -25 0Z" fill="#FFD957" stroke="#8B4513" stroke-width="1.4"/>
      <circle r="11" fill="#5A0000"/>
      <circle r="8.5" fill="#D40000" stroke="#FFD867" stroke-width="2"/>
      <circle cx="-3" cy="-3" r="2.4" fill="#FFF4D2" opacity="0.8"/>
    </g>
    <path d="M34 32C41 23 52 18 64 18" stroke="#FFF6C8" stroke-width="4" stroke-linecap="round" opacity="0.42"/>
  </g>
</svg>
