<?xml version="1.0" standalone="no"?><!DOCTYPE svg PUBLIC "-//W3C//DTD SVG 1.1//EN" "http://www.w3.org/Graphics/SVG/1.1/DTD/svg11.dtd"><svg t="1772353910960" class="icon" viewBox="0 0 1024 1024" version="1.1" xmlns="http://www.w3.org/2000/svg" p-id="4891" xmlns:xlink="http://www.w3.org/1999/xlink" width="200" height="200"><path d="M512 116.4921875c109.02806282 0 197.75390625 88.69262695 197.75390625 197.75390625S621.02806282 512 512 512 314.24609375 423.27415657 314.24609375 314.24609375 402.97193718 116.4921875 512 116.4921875z m0 65.91771126c-72.64134407 0-131.83619499 59.19485092-131.83619499 131.83619499 0 72.60890007 59.19485092 131.83619499 131.83619499 131.83619499S643.83619499 386.88743782 643.83619499 314.24609375 584.60890007 182.40989876 512 182.40989876z m93.2409668 362.54934311c151.28173828 0 264.9570179 100.12913704 269.17628288 246.53268814l0.13132095 8.47097397v16.24826431c0 73.99317742-115.98266602 89.48364258-254.11376953 91.13210678l-27.88330078 0.16453743H431.44849968c-152.93020249 0-276.7565918-11.86523438-281.83253288-86.45167351l-0.16453743-4.8449707V799.96367646c0-148.15089226 110.80784798-251.04858398 260.63964844-254.90478517l8.63473891-0.09887695h186.4819336z m0 65.91771126h-186.51437759c-117.89531708 0-199.60012436 73.82786751-203.25857163 181.50486945l-0.13132095 7.5810814v16.24826431c0 8.50341797 58.07321548 23.73046875 193.43576431 25.24683952l22.64282226 0.13132095h161.10377312l23.26852798-0.13132095c127.78223992-1.64769172 189.25048828-16.57811165 192.64552117-24.55470085l0.19775391-0.69213867V799.96367646c0-109.2590332-79.06834602-185.55959702-195.24876595-188.95385742L605.27418327 610.87695313z" fill="#333333" p-id="4892"></path></svg>